# xmcd CD database file
#
# Track frame offsets:
#	150
#	13590
#	27252
#	37680
#	60957
#	77680
#	101360
#	115440
#	126092
#	138790
#	161855
#	179030
#	193207
#	206710
#	227750
#
# Disc length: 3324 seconds
#
# Revision: 2
# Processed by: cddbd v1.5.2PL0 Copyright (c) Steve Scherf et al.
# Submitted via: CDex 1.51
#
DISCID=c50cfa0f
DTITLE=Various Artist - Blues Story #13 - Le Blues Rock Vol. 2
DYEAR=1998
DGENRE=Blues
TTITLE0=Bo Diddley - I'm A Man
TTITLE1=Chuck Berry - Wee Wee Hours
TTITLE2=Arthur "Big Boy" Crudup - That's All Right
TTITLE3=Popa Chubby - What's Your Point ?
TTITLE4=Neal Black - I'm Gonna Cry
TTITLE5=Ian Moore - Nothing
TTITLE6=Muddy Waters - Let's Spend The Night Together
TTITLE7=Elmore James - Madison Blues
TTITLE8=Howlin' Wolf - I Ain't Superstitious
TTITLE9=Tino Gonzales - Young Thing
TTITLE10=Steve Johnson - Leaving New York
TTITLE11=Stevie Larocca - Stevie Shuffle
TTITLE12=Eddy Shaver - Call Me A Doctor
TTITLE13=Albert Collins - Don't Loose Your Cool
TTITLE14=Roy Buchanan - Beer Drinking Wooman
EXTD=YEAR: 1998
EXTT0=I'
EXTT1=
EXTT2=
EXTT3=
EXTT4=
EXTT5=
EXTT6=
EXTT7=
EXTT8=
EXTT9=
EXTT10=
EXTT11=
EXTT12=
EXTT13=
EXTT14=
PLAYORDER=
